<?xml version="1.0" encoding="utf-8"?>
<!-- Generator: Adobe Illustrator 23.0.3, SVG Export Plug-In . SVG Version: 6.00 Build 0)  -->
<svg version="1.1" id="Layer_1" xmlns="http://www.w3.org/2000/svg" xmlns:xlink="http://www.w3.org/1999/xlink" x="0px" y="0px"
	 viewBox="0 0 1292 326" style="enable-background:new 0 0 1292 326;" xml:space="preserve">
<style type="text/css">
	.st0{fill:#FFFFFF;}
	.st1{fill:#E2B742;}
	.st2{fill:#3079D1;}
</style>
<g>
	<path class="st0" d="M594.1,195.7c0,8.8-0.9,17.3-2.7,25.5c-3.8,0.4-7.7,0.6-11.7,0.6c-24.8,0-47.5-8.5-65.5-22.7
		c-1.7-1.3-3.3-2.7-4.9-4.1c-7-6.2-13.1-13.3-18.3-21.2c-1.9-2.8-3.6-5.8-5.2-8.8c-7.7-14.7-12.1-31.4-12.1-49.2
		c0-14.3,2.8-27.8,7.9-40.3C544.5,79.7,594.1,131.9,594.1,195.7z"/>
	<path d="M579.7,221.8c-24.8,0-47.5-8.5-65.6-22.7h-4.9V195c-7-6.2-13.1-13.3-18.2-21.2v25.2h-5.2v-34
		c-7.7-14.7-12.1-31.4-12.1-49.2c0-14.3,2.8-27.9,7.9-40.3c-2.6-0.2-5.3-0.3-7.9-0.3c-66.4,0-120.3,53.9-120.3,120.3
		S407.3,316,473.8,316c57.7,0,105.9-40.6,117.6-94.8C587.5,221.6,583.6,221.8,579.7,221.8z"/>
	<path class="st1" d="M491,199.1v-25.2c-1.9-2.8-3.6-5.8-5.2-8.8v34H491z"/>
	<path class="st1" d="M514.1,199.1c-1.7-1.3-3.3-2.7-4.9-4.1v4.1H514.1z"/>
	<path class="st1" d="M685.6,115.9c0,54.6-41.3,99.5-94.3,105.3c1.8-8.2,2.7-16.8,2.7-25.5c0-63.8-49.6-116-112.4-120
		c15.8-38.5,53.7-65.7,98-65.7C638.2,10,685.6,57.4,685.6,115.9z"/>
	<path class="st1" d="M386.4,147.4h5.2v31.2c0,3.7,0.1,6,0.2,6.9c0.3,2,0.9,3.7,1.8,5.1c0.9,1.4,2.4,2.5,4.3,3.4
		c1.9,0.9,3.9,1.4,5.9,1.4c1.7,0,3.4-0.4,4.9-1.1c1.6-0.7,2.9-1.7,3.9-3s1.8-2.8,2.3-4.7c0.4-1.3,0.5-4,0.5-8.1v-31.2h5.2v31.2
		c0,4.6-0.5,8.3-1.4,11.2c-0.9,2.8-2.7,5.3-5.4,7.4s-6,3.2-9.8,3.2c-4.2,0-7.7-1-10.7-3c-3-2-5-4.6-6-7.9c-0.6-2-0.9-5.6-0.9-10.9
		V147.4z"/>
	<path class="st1" d="M433.4,199.1v-51.7h1.1l34.4,39.6v-39.6h5.1v51.7h-1.2L438.7,160v39.2H433.4z"/>
	<path class="st2" d="M590.9,152.5v-5.1h28.3v5.1h-11.5v46.7h-5.3v-46.7H590.9z"/>
	<path class="st2" d="M626.9,147.4h5.2v31.2c0,3.7,0.1,6,0.2,6.9c0.3,2,0.9,3.7,1.8,5.1c0.9,1.4,2.4,2.5,4.3,3.4
		c1.9,0.9,3.9,1.4,5.9,1.4c1.7,0,3.4-0.4,4.9-1.1c1.6-0.7,2.9-1.7,3.9-3s1.8-2.8,2.3-4.7c0.4-1.3,0.5-4,0.5-8.1v-31.2h5.2v31.2
		c0,4.6-0.5,8.3-1.4,11.2c-0.9,2.8-2.7,5.3-5.4,7.4s-6,3.2-9.8,3.2c-4.2,0-7.7-1-10.7-3c-3-2-5-4.6-6-7.9c-0.6-2-0.9-5.6-0.9-10.9
		V147.4z"/>
	<path class="st2" d="M668.7,152.5v-5.1h28.3v5.1h-11.5v46.7h-5.3v-46.7H668.7z"/>
	<path class="st2" d="M729.2,146.1c7.8,0,14.4,2.6,19.7,7.8c5.3,5.2,7.9,11.7,7.9,19.3c0,7.6-2.6,14-7.9,19.3
		c-5.3,5.3-11.7,7.9-19.3,7.9c-7.7,0-14.1-2.6-19.4-7.9c-5.3-5.3-7.9-11.6-7.9-19.1c0-5,1.2-9.6,3.6-13.8c2.4-4.2,5.7-7.6,9.8-10
		C719.8,147.3,724.3,146.1,729.2,146.1z M729.4,151.1c-3.8,0-7.5,1-10.9,3c-3.4,2-6.1,4.7-8,8.1c-1.9,3.4-2.9,7.1-2.9,11.3
		c0,6.1,2.1,11.3,6.4,15.6c4.3,4.2,9.4,6.4,15.4,6.4c4,0,7.7-1,11.1-2.9c3.4-1.9,6.1-4.6,8-8c1.9-3.4,2.9-7.1,2.9-11.3
		c0-4.1-1-7.8-2.9-11.1s-4.6-6-8.1-8C737,152.1,733.3,151.1,729.4,151.1z"/>
	<path class="st2" d="M767.4,147.4h10.3c5.7,0,9.6,0.2,11.7,0.7c3.1,0.7,5.6,2.2,7.5,4.5c1.9,2.3,2.9,5.2,2.9,8.5
		c0,2.8-0.7,5.3-2,7.4c-1.3,2.1-3.2,3.7-5.7,4.8s-5.9,1.6-10.2,1.7l18.6,24h-6.4l-18.6-24h-2.9v24h-5.2V147.4z M772.6,152.5v17.6
		l8.9,0.1c3.5,0,6-0.3,7.7-1c1.7-0.7,2.9-1.7,3.9-3.1c0.9-1.4,1.4-3.1,1.4-4.8c0-1.7-0.5-3.3-1.4-4.7c-0.9-1.4-2.2-2.4-3.7-3
		c-1.5-0.6-4.1-0.9-7.6-0.9H772.6z"/>
	<path class="st2" d="M810.1,147.4h5.2v51.7h-5.2V147.4z"/>
	<path class="st2" d="M848.2,147.4l24.1,51.7h-5.6l-8.1-17h-22.3l-8.1,17h-5.8l24.4-51.7H848.2z M847.6,158.4l-8.9,18.7h17.7
		L847.6,158.4z"/>
	<path class="st2" d="M880.4,147.4h5.2v46.7h19.9v5h-25.1V147.4z"/>
	<path class="st2" d="M908.3,189.5l4.4-2.6c3.1,5.7,6.7,8.5,10.7,8.5c1.7,0,3.4-0.4,4.9-1.2c1.5-0.8,2.7-1.9,3.5-3.3
		c0.8-1.4,1.2-2.8,1.2-4.3c0-1.7-0.6-3.4-1.8-5.1c-1.6-2.3-4.6-5.1-8.9-8.3c-4.3-3.3-7-5.6-8.1-7.1c-1.8-2.4-2.7-5.1-2.7-7.9
		c0-2.3,0.5-4.3,1.6-6.2c1.1-1.9,2.6-3.3,4.6-4.4c2-1.1,4.1-1.6,6.4-1.6c2.4,0,4.7,0.6,6.8,1.8c2.1,1.2,4.4,3.4,6.7,6.7l-4.2,3.2
		c-1.9-2.6-3.6-4.3-5-5.1c-1.4-0.8-2.9-1.2-4.5-1.2c-2.1,0-3.8,0.6-5.1,1.9c-1.3,1.3-2,2.8-2,4.7c0,1.1,0.2,2.2,0.7,3.3
		c0.5,1.1,1.3,2.2,2.6,3.4c0.7,0.7,2.9,2.4,6.7,5.2c4.5,3.3,7.5,6.2,9.2,8.8c1.7,2.6,2.5,5.2,2.5,7.8c0,3.8-1.4,7-4.3,9.8
		s-6.3,4.1-10.4,4.1c-3.1,0-6-0.8-8.5-2.5C912.8,196.2,910.4,193.4,908.3,189.5z"/>
	<path d="M491,147.4h-5.2v17.7c1.6,3,3.3,5.9,5.2,8.8V147.4z"/>
	<path d="M514.6,199.1v-46.7h11.5v-5.1h-28.3v5.1h11.5V195c1.6,1.4,3.2,2.8,4.9,4.1H514.6z"/>
	<polygon points="546.2,199.1 551.3,199.1 551.3,174.4 567.6,147.4 561.7,147.4 548.6,168.7 535.4,147.4 529.5,147.4 546.2,174.4 	
		"/>
</g>
</svg>
